<?xml version="1.0" standalone="no"?>
<!DOCTYPE svg PUBLIC "-//W3C//DTD SVG 20010904//EN"
 "http://www.w3.org/TR/2001/REC-SVG-20010904/DTD/svg10.dtd">
<svg version="1.0" xmlns="http://www.w3.org/2000/svg"
 width="1025.000000pt" height="1025.000000pt" viewBox="0 0 1025.000000 1025.000000"
 preserveAspectRatio="xMidYMid meet">
<metadata>
Created by potrace 1.11, written by Peter Selinger 2001-2013
</metadata>
<g transform="translate(0.000000,1025.000000) scale(0.100000,-0.100000)"
fill="#000000" stroke="none">
<path d="M7761 8340 c-111 -37 -283 -211 -479 -483 -62 -87 -194 -287 -227
-344 -6 -10 -42 -72 -81 -138 -80 -135 -168 -291 -230 -410 -61 -116 -364
-722 -364 -728 0 -2 -25 -57 -55 -121 -102 -215 -385 -848 -385 -861 0 -2 -13
-32 -28 -67 -16 -35 -35 -78 -42 -96 -14 -35 -36 -57 -27 -26 4 11 9 51 12 89
4 39 8 81 10 95 2 14 7 57 10 95 3 39 8 86 10 105 2 19 7 62 10 95 7 68 11
101 22 195 4 36 8 103 8 150 0 71 -4 93 -25 133 -29 58 -77 102 -139 130 -79
35 -126 30 -351 -35 -113 -32 -212 -60 -220 -62 -13 -3 -242 -73 -400 -122
-24 -7 -45 -12 -47 -11 -1 2 -5 21 -8 43 -4 21 -8 46 -10 54 -2 8 -7 33 -10
55 -3 23 -7 52 -10 65 -3 14 -16 86 -30 160 -14 74 -27 146 -30 160 -3 14 -15
70 -25 125 -11 55 -25 123 -30 150 -6 28 -13 61 -15 75 -3 14 -7 36 -10 50 -3
14 -8 39 -10 55 -20 112 -73 188 -160 231 -81 39 -172 37 -251 -5 -76 -40
-117 -91 -138 -172 -18 -71 -16 -81 44 -384 29 -143 54 -269 56 -280 2 -11 6
-31 9 -45 2 -14 7 -41 10 -60 3 -19 8 -42 10 -50 5 -19 44 -243 51 -295 3 -22
9 -55 14 -72 5 -18 5 -35 1 -37 -3 -3 -132 -49 -286 -105 -392 -140 -958 -358
-1130 -436 -16 -8 -106 -47 -200 -89 -1133 -498 -1912 -999 -2289 -1471 -31
-38 -60 -75 -65 -81 -71 -88 -165 -284 -197 -412 -98 -387 98 -819 475 -1046
79 -48 240 -118 310 -136 128 -32 170 -41 201 -46 19 -3 41 -7 48 -9 79 -27
625 -27 764 0 13 3 43 7 68 10 366 43 891 210 1300 413 338 168 566 327 791
552 216 215 338 368 476 595 153 253 271 560 319 830 3 22 8 47 10 57 1 9 5
38 9 65 4 26 9 59 11 73 19 112 25 569 10 750 l-7 96 33 11 c71 24 228 73 333
103 61 17 118 36 128 41 17 9 18 6 12 -62 -4 -40 -8 -80 -10 -88 -1 -9 -6 -52
-10 -95 -4 -43 -8 -86 -10 -95 -1 -9 -6 -52 -9 -96 -4 -44 -9 -91 -11 -105 -2
-14 -6 -56 -10 -95 -3 -38 -8 -86 -10 -105 -10 -79 -17 -151 -30 -285 -3 -33
-8 -76 -10 -95 -3 -19 -7 -64 -10 -100 -5 -60 -9 -95 -20 -190 -5 -41 -14
-125 -20 -195 -2 -27 -7 -72 -10 -100 -3 -27 -7 -71 -10 -97 -3 -27 -7 -69
-10 -95 -3 -27 -7 -73 -11 -103 -3 -30 -7 -71 -9 -90 -2 -19 -7 -66 -10 -104
-4 -38 -8 -78 -10 -87 -2 -10 -7 -56 -10 -102 -3 -46 -8 -93 -9 -103 -10 -66
54 -185 122 -228 134 -84 314 -49 390 77 11 18 77 185 147 372 151 402 544
1386 615 1540 5 11 21 49 36 85 26 64 40 97 75 175 9 22 47 110 84 195 37 85
75 173 85 195 10 22 51 112 90 200 40 88 93 203 117 255 25 52 59 124 75 160
49 106 279 570 283 570 2 0 -3 -26 -10 -57 -7 -32 -18 -92 -25 -133 -7 -41
-14 -84 -16 -95 -10 -51 -24 -134 -29 -170 -3 -23 -7 -50 -9 -61 -2 -12 -7
-45 -11 -75 -3 -30 -8 -67 -12 -84 -3 -16 -7 -41 -8 -55 -8 -78 -17 -157 -20
-170 -2 -8 -7 -53 -10 -100 -3 -47 -8 -96 -10 -110 -3 -22 -11 -121 -21 -275
-4 -67 -4 -557 0 -620 5 -68 18 -206 21 -225 1 -8 6 -40 10 -70 10 -82 44
-270 56 -307 6 -17 12 -43 15 -57 13 -71 81 -255 138 -371 104 -212 162 -260
311 -260 57 0 90 5 116 18 66 33 121 94 149 167 28 73 134 318 171 398 21 46
39 86 39 88 0 6 191 388 230 459 68 126 224 390 244 412 0 1 1 -159 1 -355 0
-408 10 -595 45 -827 5 -33 12 -80 15 -105 9 -63 32 -169 62 -275 71 -261 170
-455 300 -591 114 -119 198 -167 292 -166 69 1 75 2 132 30 91 44 140 121 147
233 4 67 1 82 -23 132 -16 36 -42 69 -68 90 -140 110 -214 256 -271 532 -89
434 -104 1082 -40 1765 2 30 7 69 9 85 12 88 20 177 19 235 -1 143 -115 259
-261 266 -186 9 -455 -206 -711 -568 -144 -203 -304 -475 -466 -793 -46 -91
-88 -166 -92 -166 -5 1 -9 11 -10 23 0 13 -4 41 -7 63 -11 77 -20 261 -21 400
0 150 13 505 18 514 2 3 7 47 10 96 4 50 9 101 11 115 2 14 6 52 10 84 3 33 8
73 10 90 2 17 7 51 10 76 3 25 7 56 9 70 3 14 7 45 10 70 12 91 67 410 102
585 20 99 38 188 40 198 2 10 5 26 8 35 3 9 7 28 10 42 35 188 162 687 246
965 67 219 68 226 65 283 -11 176 -196 299 -364 242z m-3488 -3182 c10 -28 4
-429 -8 -528 -19 -153 -45 -293 -68 -365 -2 -5 -9 -30 -16 -55 -37 -132 -146
-365 -240 -509 -37 -57 -117 -167 -135 -187 -6 -6 -33 -39 -61 -73 -73 -90
-258 -268 -350 -337 -238 -179 -525 -328 -860 -447 -102 -37 -360 -114 -405
-122 -14 -2 -68 -13 -120 -24 -52 -11 -115 -22 -140 -26 -25 -3 -52 -8 -60
-10 -14 -4 -69 -9 -208 -21 -321 -27 -643 28 -815 140 -103 67 -159 138 -199
251 -34 96 -25 172 34 288 83 165 284 372 558 575 80 60 318 222 325 222 2 0
36 20 74 45 122 79 389 225 656 359 219 110 368 178 842 387 84 37 622 248
748 294 72 25 146 53 165 60 74 29 256 93 266 94 7 1 14 -5 17 -11z"/>
<path d="M9915 2705 c-64 -15 -102 -35 -142 -77 -135 -142 -91 -372 87 -451
60 -27 160 -27 223 1 60 27 128 97 149 155 22 61 18 158 -9 218 -51 114 -187
182 -308 154z"/>
</g>
</svg>
